<svg width="31" height="36" viewBox="0 0 31 36" fill="none" xmlns="http://www.w3.org/2000/svg">
<g clip-path="url(#clip0_807_4584)">
<path d="M25.1647 12.78H23.7059V9.18001C23.7059 4.86001 20.0588 1.26001 15.6824 1.26001C11.3059 1.26001 7.65884 4.86001 7.65884 9.18001V12.96H6.01767C3.46472 12.96 1.27649 15.12 1.27649 17.64V30.6C1.27649 33.12 3.46472 35.28 6.01767 35.28H25.1647C27.7177 35.28 29.9059 33.12 29.9059 30.6V17.46C29.7235 14.94 27.7177 12.78 25.1647 12.78ZM8.75296 9.18001C8.75296 5.58001 11.853 2.52001 15.5 2.52001C19.3294 2.52001 22.2471 5.58001 22.2471 9.18001V12.96H8.75296V9.18001ZM28.6294 30.42C28.6294 32.22 27.1706 33.84 25.1647 33.84H6.01767C4.19414 33.84 2.55296 32.4 2.55296 30.42V17.46C2.55296 15.66 4.01178 14.04 6.01767 14.04H25.1647C26.9883 14.04 28.6294 15.48 28.6294 17.46V30.42Z" fill="#E5173F" stroke="#E5173F" stroke-width="0.75" stroke-miterlimit="10"/>
<path d="M15.5 18.72C13.8589 18.72 12.5824 19.98 12.5824 21.6C12.5824 22.32 12.9471 23.22 13.4942 23.76V26.64C13.4942 27.72 14.4059 28.62 15.5 28.62C16.5942 28.62 17.5059 27.72 17.5059 26.64V23.76C18.053 23.22 18.4177 22.5 18.4177 21.6C18.4177 19.98 17.1412 18.72 15.5 18.72ZM16.7765 23.22L16.5942 26.64C16.5942 27.18 16.0471 27.72 15.5 27.72C14.953 27.72 14.4059 27.18 14.4059 26.64V23.4L14.2236 23.22C13.6765 22.86 13.4942 22.32 13.4942 21.6C13.4942 20.52 14.4059 19.62 15.5 19.62C16.5942 19.62 17.5059 20.52 17.5059 21.6C17.5059 22.32 17.3236 22.86 16.7765 23.22Z" fill="#E5173F"/>
<path d="M15.5 23.7601C16.7085 23.7601 17.6882 22.793 17.6882 21.6001C17.6882 20.4071 16.7085 19.4401 15.5 19.4401C14.2915 19.4401 13.3118 20.4071 13.3118 21.6001C13.3118 22.793 14.2915 23.7601 15.5 23.7601Z" fill="#E5173F"/>
<path d="M15.5 28.0801C16.3056 28.0801 16.9588 26.7906 16.9588 25.2001C16.9588 23.6095 16.3056 22.3201 15.5 22.3201C14.6943 22.3201 14.0411 23.6095 14.0411 25.2001C14.0411 26.7906 14.6943 28.0801 15.5 28.0801Z" fill="#E5173F"/>
</g>
<defs>
<clipPath id="clip0_807_4584">
<rect width="31" height="36" fill="white"/>
</clipPath>
</defs>
</svg>
